<mxfile host="app.diagrams.net" modified="2021-01-20T06:25:32.087Z" agent="5.0 (X11)" etag="aZDf8CIUKgJTV7u5BzeQ" version="14.2.4" type="github">
  <diagram id="C5RBs43oDa-KdzZeNtuy" name="Page-1">
    <mxGraphModel dx="1793" dy="798" grid="1" gridSize="10" guides="1" tooltips="1" connect="1" arrows="1" fold="1" page="1" pageScale="1" pageWidth="827" pageHeight="1169" math="0" shadow="0">
      <root>
        <mxCell id="WIyWlLk6GJQsqaUBKTNV-0" />
        <mxCell id="WIyWlLk6GJQsqaUBKTNV-1" parent="WIyWlLk6GJQsqaUBKTNV-0" />
        <mxCell id="www5NR6X_WwEpWq2gRgQ-2" value="" style="edgeStyle=orthogonalEdgeStyle;rounded=0;orthogonalLoop=1;jettySize=auto;html=1;" edge="1" parent="WIyWlLk6GJQsqaUBKTNV-1" source="WIyWlLk6GJQsqaUBKTNV-3" target="WIyWlLk6GJQsqaUBKTNV-6">
          <mxGeometry relative="1" as="geometry" />
        </mxCell>
        <mxCell id="WIyWlLk6GJQsqaUBKTNV-3" value="clone portal repo" style="rounded=1;whiteSpace=wrap;html=1;fontSize=12;glass=0;strokeWidth=1;shadow=0;" parent="WIyWlLk6GJQsqaUBKTNV-1" vertex="1">
          <mxGeometry x="244" y="40" width="120" height="40" as="geometry" />
        </mxCell>
        <mxCell id="WIyWlLk6GJQsqaUBKTNV-4" value="Yes" style="rounded=0;html=1;jettySize=auto;orthogonalLoop=1;fontSize=11;endArrow=block;endFill=0;endSize=8;strokeWidth=1;shadow=0;labelBackgroundColor=none;edgeStyle=orthogonalEdgeStyle;entryX=0;entryY=0.5;entryDx=0;entryDy=0;" parent="WIyWlLk6GJQsqaUBKTNV-1" source="WIyWlLk6GJQsqaUBKTNV-6" target="www5NR6X_WwEpWq2gRgQ-0" edge="1">
          <mxGeometry x="0.0222" y="20" relative="1" as="geometry">
            <mxPoint as="offset" />
            <mxPoint x="304" y="370" as="targetPoint" />
            <Array as="points" />
          </mxGeometry>
        </mxCell>
        <mxCell id="WIyWlLk6GJQsqaUBKTNV-5" value="No" style="edgeStyle=orthogonalEdgeStyle;rounded=0;html=1;jettySize=auto;orthogonalLoop=1;fontSize=11;endArrow=block;endFill=0;endSize=8;strokeWidth=1;shadow=0;labelBackgroundColor=none;" parent="WIyWlLk6GJQsqaUBKTNV-1" source="WIyWlLk6GJQsqaUBKTNV-6" target="WIyWlLk6GJQsqaUBKTNV-7" edge="1">
          <mxGeometry x="-0.0714" y="5" relative="1" as="geometry">
            <mxPoint as="offset" />
            <Array as="points">
              <mxPoint x="294" y="150" />
              <mxPoint x="294" y="150" />
            </Array>
          </mxGeometry>
        </mxCell>
        <mxCell id="WIyWlLk6GJQsqaUBKTNV-6" value="first run ?" style="rhombus;whiteSpace=wrap;html=1;shadow=0;fontFamily=Helvetica;fontSize=12;align=center;strokeWidth=1;spacing=6;spacingTop=-4;" parent="WIyWlLk6GJQsqaUBKTNV-1" vertex="1">
          <mxGeometry x="254" y="110" width="100" height="80" as="geometry" />
        </mxCell>
        <mxCell id="www5NR6X_WwEpWq2gRgQ-40" style="edgeStyle=orthogonalEdgeStyle;rounded=0;jumpStyle=sharp;orthogonalLoop=1;jettySize=auto;html=1;" edge="1" parent="WIyWlLk6GJQsqaUBKTNV-1" source="WIyWlLk6GJQsqaUBKTNV-7" target="www5NR6X_WwEpWq2gRgQ-19">
          <mxGeometry relative="1" as="geometry">
            <Array as="points">
              <mxPoint x="300" y="300" />
              <mxPoint x="300" y="300" />
            </Array>
          </mxGeometry>
        </mxCell>
        <mxCell id="WIyWlLk6GJQsqaUBKTNV-7" value="configure cluster if needed" style="rounded=1;whiteSpace=wrap;html=1;fontSize=12;glass=0;strokeWidth=1;shadow=0;" parent="WIyWlLk6GJQsqaUBKTNV-1" vertex="1">
          <mxGeometry x="244" y="240" width="380" height="40" as="geometry" />
        </mxCell>
        <mxCell id="WIyWlLk6GJQsqaUBKTNV-8" value="No" style="rounded=0;html=1;jettySize=auto;orthogonalLoop=1;fontSize=11;endArrow=block;endFill=0;endSize=8;strokeWidth=1;shadow=0;labelBackgroundColor=none;edgeStyle=orthogonalEdgeStyle;" parent="WIyWlLk6GJQsqaUBKTNV-1" source="WIyWlLk6GJQsqaUBKTNV-10" edge="1">
          <mxGeometry x="0.3333" y="20" relative="1" as="geometry">
            <mxPoint as="offset" />
            <mxPoint x="220" y="640" as="targetPoint" />
            <Array as="points">
              <mxPoint x="150" y="640" />
            </Array>
          </mxGeometry>
        </mxCell>
        <mxCell id="WIyWlLk6GJQsqaUBKTNV-9" value="Yes" style="edgeStyle=orthogonalEdgeStyle;rounded=0;html=1;jettySize=auto;orthogonalLoop=1;fontSize=11;endArrow=block;endFill=0;endSize=8;strokeWidth=1;shadow=0;labelBackgroundColor=none;" parent="WIyWlLk6GJQsqaUBKTNV-1" source="WIyWlLk6GJQsqaUBKTNV-10" edge="1">
          <mxGeometry y="10" relative="1" as="geometry">
            <mxPoint as="offset" />
            <mxPoint x="490" y="540" as="targetPoint" />
          </mxGeometry>
        </mxCell>
        <mxCell id="www5NR6X_WwEpWq2gRgQ-0" value="configure nexus token" style="rounded=1;whiteSpace=wrap;html=1;fontSize=12;glass=0;strokeWidth=1;shadow=0;" vertex="1" parent="WIyWlLk6GJQsqaUBKTNV-1">
          <mxGeometry x="444" y="130" width="140" height="40" as="geometry" />
        </mxCell>
        <mxCell id="www5NR6X_WwEpWq2gRgQ-17" value="" style="endArrow=classic;html=1;edgeStyle=orthogonalEdgeStyle;strokeColor=none;" edge="1" parent="WIyWlLk6GJQsqaUBKTNV-1">
          <mxGeometry width="50" height="50" relative="1" as="geometry">
            <mxPoint x="390" y="430" as="sourcePoint" />
            <mxPoint x="440" y="380" as="targetPoint" />
          </mxGeometry>
        </mxCell>
        <mxCell id="www5NR6X_WwEpWq2gRgQ-18" value="" style="endArrow=classic;html=1;exitX=0.5;exitY=1;exitDx=0;exitDy=0;edgeStyle=orthogonalEdgeStyle;rounded=0;entryX=0.711;entryY=0;entryDx=0;entryDy=0;entryPerimeter=0;" edge="1" parent="WIyWlLk6GJQsqaUBKTNV-1" source="www5NR6X_WwEpWq2gRgQ-0" target="WIyWlLk6GJQsqaUBKTNV-7">
          <mxGeometry width="50" height="50" relative="1" as="geometry">
            <mxPoint x="444" y="330" as="sourcePoint" />
            <mxPoint x="514" y="230" as="targetPoint" />
          </mxGeometry>
        </mxCell>
        <mxCell id="www5NR6X_WwEpWq2gRgQ-19" value="application frontend" style="swimlane;startSize=23;" vertex="1" parent="WIyWlLk6GJQsqaUBKTNV-1">
          <mxGeometry x="40" y="330" width="390" height="459" as="geometry" />
        </mxCell>
        <mxCell id="www5NR6X_WwEpWq2gRgQ-21" value="directly install dependencies" style="rounded=1;whiteSpace=wrap;html=1;" vertex="1" parent="www5NR6X_WwEpWq2gRgQ-19">
          <mxGeometry x="10" y="240" width="140" height="48" as="geometry" />
        </mxCell>
        <mxCell id="www5NR6X_WwEpWq2gRgQ-27" style="edgeStyle=orthogonalEdgeStyle;rounded=0;jumpStyle=sharp;orthogonalLoop=1;jettySize=auto;html=1;entryX=0.207;entryY=0.042;entryDx=0;entryDy=0;exitX=0;exitY=0.5;exitDx=0;exitDy=0;entryPerimeter=0;" edge="1" parent="www5NR6X_WwEpWq2gRgQ-19" source="www5NR6X_WwEpWq2gRgQ-22" target="www5NR6X_WwEpWq2gRgQ-21">
          <mxGeometry relative="1" as="geometry">
            <mxPoint x="120" y="240" as="targetPoint" />
            <Array as="points">
              <mxPoint x="39" y="109" />
            </Array>
          </mxGeometry>
        </mxCell>
        <mxCell id="www5NR6X_WwEpWq2gRgQ-28" value="No" style="edgeLabel;html=1;align=center;verticalAlign=middle;resizable=0;points=[];" vertex="1" connectable="0" parent="www5NR6X_WwEpWq2gRgQ-27">
          <mxGeometry x="-0.2159" y="-2" relative="1" as="geometry">
            <mxPoint as="offset" />
          </mxGeometry>
        </mxCell>
        <mxCell id="www5NR6X_WwEpWq2gRgQ-22" value="&lt;div&gt;run development &lt;br&gt;&lt;/div&gt;&lt;div&gt;mode ?&lt;/div&gt;" style="rhombus;whiteSpace=wrap;html=1;shadow=0;fontFamily=Helvetica;fontSize=12;align=center;strokeWidth=1;spacing=6;spacingTop=-4;" vertex="1" parent="www5NR6X_WwEpWq2gRgQ-19">
          <mxGeometry x="40" y="69" width="160" height="80" as="geometry" />
        </mxCell>
        <mxCell id="www5NR6X_WwEpWq2gRgQ-33" style="edgeStyle=orthogonalEdgeStyle;rounded=0;jumpStyle=sharp;orthogonalLoop=1;jettySize=auto;html=1;exitX=0;exitY=0.5;exitDx=0;exitDy=0;elbow=vertical;entryX=0.129;entryY=-0.021;entryDx=0;entryDy=0;entryPerimeter=0;" edge="1" parent="www5NR6X_WwEpWq2gRgQ-19" source="www5NR6X_WwEpWq2gRgQ-29" target="www5NR6X_WwEpWq2gRgQ-68">
          <mxGeometry relative="1" as="geometry">
            <mxPoint x="170" y="240" as="targetPoint" />
          </mxGeometry>
        </mxCell>
        <mxCell id="www5NR6X_WwEpWq2gRgQ-34" value="No" style="edgeLabel;html=1;align=center;verticalAlign=middle;resizable=0;points=[];" vertex="1" connectable="0" parent="www5NR6X_WwEpWq2gRgQ-33">
          <mxGeometry x="0.0923" y="-1" relative="1" as="geometry">
            <mxPoint as="offset" />
          </mxGeometry>
        </mxCell>
        <mxCell id="www5NR6X_WwEpWq2gRgQ-72" style="edgeStyle=elbowEdgeStyle;rounded=0;jumpStyle=sharp;orthogonalLoop=1;jettySize=auto;html=1;entryX=0.894;entryY=0;entryDx=0;entryDy=0;entryPerimeter=0;" edge="1" parent="www5NR6X_WwEpWq2gRgQ-19" source="www5NR6X_WwEpWq2gRgQ-29" target="www5NR6X_WwEpWq2gRgQ-35">
          <mxGeometry relative="1" as="geometry" />
        </mxCell>
        <mxCell id="www5NR6X_WwEpWq2gRgQ-29" value="run on windows ?" style="rhombus;whiteSpace=wrap;html=1;shadow=0;fontFamily=Helvetica;fontSize=12;align=center;strokeWidth=1;spacing=6;spacingTop=-4;" vertex="1" parent="www5NR6X_WwEpWq2gRgQ-19">
          <mxGeometry x="200" y="139" width="160" height="80" as="geometry" />
        </mxCell>
        <mxCell id="www5NR6X_WwEpWq2gRgQ-30" style="edgeStyle=orthogonalEdgeStyle;rounded=0;jumpStyle=sharp;orthogonalLoop=1;jettySize=auto;html=1;entryX=0.5;entryY=0;entryDx=0;entryDy=0;" edge="1" parent="www5NR6X_WwEpWq2gRgQ-19" source="www5NR6X_WwEpWq2gRgQ-22" target="www5NR6X_WwEpWq2gRgQ-29">
          <mxGeometry relative="1" as="geometry">
            <mxPoint x="280" y="109" as="targetPoint" />
            <Array as="points">
              <mxPoint x="280" y="109" />
            </Array>
          </mxGeometry>
        </mxCell>
        <mxCell id="www5NR6X_WwEpWq2gRgQ-32" value="Yes" style="edgeLabel;html=1;align=center;verticalAlign=middle;resizable=0;points=[];" vertex="1" connectable="0" parent="www5NR6X_WwEpWq2gRgQ-30">
          <mxGeometry x="-0.0727" relative="1" as="geometry">
            <mxPoint as="offset" />
          </mxGeometry>
        </mxCell>
        <mxCell id="www5NR6X_WwEpWq2gRgQ-35" value="install dependencies using docker container" style="rounded=1;whiteSpace=wrap;html=1;" vertex="1" parent="www5NR6X_WwEpWq2gRgQ-19">
          <mxGeometry x="214" y="255" width="160" height="49" as="geometry" />
        </mxCell>
        <mxCell id="www5NR6X_WwEpWq2gRgQ-68" value="directly install dependencies" style="rounded=1;whiteSpace=wrap;html=1;" vertex="1" parent="www5NR6X_WwEpWq2gRgQ-19">
          <mxGeometry x="160" y="320" width="140" height="48" as="geometry" />
        </mxCell>
        <mxCell id="www5NR6X_WwEpWq2gRgQ-86" value="build application" style="rounded=1;whiteSpace=wrap;html=1;" vertex="1" parent="www5NR6X_WwEpWq2gRgQ-19">
          <mxGeometry x="10" y="320" width="140" height="48" as="geometry" />
        </mxCell>
        <mxCell id="www5NR6X_WwEpWq2gRgQ-87" value="" style="endArrow=classic;html=1;exitX=0.25;exitY=1;exitDx=0;exitDy=0;entryX=0.25;entryY=0;entryDx=0;entryDy=0;" edge="1" parent="www5NR6X_WwEpWq2gRgQ-19" source="www5NR6X_WwEpWq2gRgQ-21" target="www5NR6X_WwEpWq2gRgQ-86">
          <mxGeometry width="50" height="50" relative="1" as="geometry">
            <mxPoint y="290" as="sourcePoint" />
            <mxPoint x="50" y="240" as="targetPoint" />
          </mxGeometry>
        </mxCell>
        <mxCell id="www5NR6X_WwEpWq2gRgQ-20" value="application backend" style="swimlane;" vertex="1" parent="WIyWlLk6GJQsqaUBKTNV-1">
          <mxGeometry x="450" y="330" width="370" height="460" as="geometry" />
        </mxCell>
        <mxCell id="www5NR6X_WwEpWq2gRgQ-55" value="directly install dependencies" style="rounded=1;whiteSpace=wrap;html=1;" vertex="1" parent="www5NR6X_WwEpWq2gRgQ-20">
          <mxGeometry x="50" y="292" width="140" height="48" as="geometry" />
        </mxCell>
        <mxCell id="www5NR6X_WwEpWq2gRgQ-59" style="edgeStyle=orthogonalEdgeStyle;rounded=0;jumpStyle=sharp;orthogonalLoop=1;jettySize=auto;html=1;" edge="1" source="www5NR6X_WwEpWq2gRgQ-63" parent="www5NR6X_WwEpWq2gRgQ-20">
          <mxGeometry relative="1" as="geometry">
            <mxPoint x="80" y="292" as="targetPoint" />
            <Array as="points">
              <mxPoint x="80" y="130" />
              <mxPoint x="80" y="292" />
            </Array>
          </mxGeometry>
        </mxCell>
        <mxCell id="www5NR6X_WwEpWq2gRgQ-60" value="No" style="edgeLabel;html=1;align=center;verticalAlign=middle;resizable=0;points=[];" vertex="1" connectable="0" parent="www5NR6X_WwEpWq2gRgQ-59">
          <mxGeometry x="0.0923" y="-1" relative="1" as="geometry">
            <mxPoint as="offset" />
          </mxGeometry>
        </mxCell>
        <mxCell id="www5NR6X_WwEpWq2gRgQ-63" value="run on windows ?" style="rhombus;whiteSpace=wrap;html=1;shadow=0;fontFamily=Helvetica;fontSize=12;align=center;strokeWidth=1;spacing=6;spacingTop=-4;" vertex="1" parent="www5NR6X_WwEpWq2gRgQ-20">
          <mxGeometry x="105" y="90" width="160" height="80" as="geometry" />
        </mxCell>
        <mxCell id="www5NR6X_WwEpWq2gRgQ-66" value="install dependencies using docker container" style="rounded=1;whiteSpace=wrap;html=1;" vertex="1" parent="www5NR6X_WwEpWq2gRgQ-20">
          <mxGeometry x="223" y="289" width="130" height="49" as="geometry" />
        </mxCell>
        <mxCell id="www5NR6X_WwEpWq2gRgQ-61" style="edgeStyle=orthogonalEdgeStyle;rounded=0;jumpStyle=sharp;orthogonalLoop=1;jettySize=auto;html=1;entryX=0.438;entryY=-0.041;entryDx=0;entryDy=0;entryPerimeter=0;" edge="1" source="www5NR6X_WwEpWq2gRgQ-63" target="www5NR6X_WwEpWq2gRgQ-66" parent="www5NR6X_WwEpWq2gRgQ-20">
          <mxGeometry relative="1" as="geometry">
            <mxPoint x="240" y="-50" as="targetPoint" />
            <Array as="points">
              <mxPoint x="280" y="130" />
            </Array>
          </mxGeometry>
        </mxCell>
        <mxCell id="www5NR6X_WwEpWq2gRgQ-62" value="Yes" style="edgeLabel;html=1;align=center;verticalAlign=middle;resizable=0;points=[];" vertex="1" connectable="0" parent="www5NR6X_WwEpWq2gRgQ-61">
          <mxGeometry x="-0.3644" y="-2" relative="1" as="geometry">
            <mxPoint as="offset" />
          </mxGeometry>
        </mxCell>
        <mxCell id="www5NR6X_WwEpWq2gRgQ-67" value="" style="endArrow=classic;html=1;entryX=0.5;entryY=0;entryDx=0;entryDy=0;" edge="1" target="www5NR6X_WwEpWq2gRgQ-63" parent="www5NR6X_WwEpWq2gRgQ-20">
          <mxGeometry width="50" height="50" relative="1" as="geometry">
            <mxPoint x="185" y="40" as="sourcePoint" />
            <mxPoint x="180" y="80" as="targetPoint" />
            <Array as="points" />
          </mxGeometry>
        </mxCell>
        <mxCell id="www5NR6X_WwEpWq2gRgQ-38" value="" style="endArrow=classic;html=1;entryX=0.5;entryY=0;entryDx=0;entryDy=0;" edge="1" parent="WIyWlLk6GJQsqaUBKTNV-1" target="www5NR6X_WwEpWq2gRgQ-22">
          <mxGeometry width="50" height="50" relative="1" as="geometry">
            <mxPoint x="160" y="380" as="sourcePoint" />
            <mxPoint x="90" y="390" as="targetPoint" />
            <Array as="points" />
          </mxGeometry>
        </mxCell>
        <mxCell id="www5NR6X_WwEpWq2gRgQ-41" style="edgeStyle=orthogonalEdgeStyle;rounded=0;jumpStyle=sharp;orthogonalLoop=1;jettySize=auto;html=1;" edge="1" parent="WIyWlLk6GJQsqaUBKTNV-1" source="WIyWlLk6GJQsqaUBKTNV-7">
          <mxGeometry relative="1" as="geometry">
            <mxPoint x="310" y="290" as="sourcePoint" />
            <mxPoint x="520" y="330" as="targetPoint" />
            <Array as="points">
              <mxPoint x="520" y="330" />
            </Array>
          </mxGeometry>
        </mxCell>
        <mxCell id="www5NR6X_WwEpWq2gRgQ-88" value="run containers with `docker-compose up` command" style="rounded=1;whiteSpace=wrap;html=1;" vertex="1" parent="WIyWlLk6GJQsqaUBKTNV-1">
          <mxGeometry x="50" y="860" width="750" height="60" as="geometry" />
        </mxCell>
        <mxCell id="www5NR6X_WwEpWq2gRgQ-89" value="" style="endArrow=classic;html=1;entryX=0.2;entryY=-0.033;entryDx=0;entryDy=0;entryPerimeter=0;" edge="1" parent="WIyWlLk6GJQsqaUBKTNV-1" target="www5NR6X_WwEpWq2gRgQ-88">
          <mxGeometry width="50" height="50" relative="1" as="geometry">
            <mxPoint x="200" y="790" as="sourcePoint" />
            <mxPoint x="200" y="830" as="targetPoint" />
          </mxGeometry>
        </mxCell>
        <mxCell id="www5NR6X_WwEpWq2gRgQ-90" value="" style="endArrow=classic;html=1;exitX=0.5;exitY=1;exitDx=0;exitDy=0;entryX=0.781;entryY=-0.033;entryDx=0;entryDy=0;entryPerimeter=0;" edge="1" parent="WIyWlLk6GJQsqaUBKTNV-1" source="www5NR6X_WwEpWq2gRgQ-20" target="www5NR6X_WwEpWq2gRgQ-88">
          <mxGeometry width="50" height="50" relative="1" as="geometry">
            <mxPoint x="650" y="790" as="sourcePoint" />
            <mxPoint x="637" y="840" as="targetPoint" />
          </mxGeometry>
        </mxCell>
      </root>
    </mxGraphModel>
  </diagram>
</mxfile>
